<?xml version="1.0" encoding="utf-8"?>
<!-- Generator: Adobe Illustrator 26.0.3, SVG Export Plug-In . SVG Version: 6.00 Build 0)  -->
<svg version="1.1" id="Layer_1" xmlns="http://www.w3.org/2000/svg" xmlns:xlink="http://www.w3.org/1999/xlink" x="0px" y="0px"
	 viewBox="0 0 114 40" style="enable-background:new 0 0 114 40;" xml:space="preserve">
<style type="text/css">
	.st0{fill:#FFFFFF;}
	.st1{fill:#DDE3E6;}
</style>
<g>
	<g>
		<path class="st0" d="M18,10.2L18,10.2c0,1.1-0.9,2-2,2l0,0c-1.1,0-2-0.9-2-2l0,0c0-1.1,0.9-2,2-2l0,0C17.1,8.3,18,9.1,18,10.2z"/>
		<g>
			<path class="st1" d="M20.8,16.1c-7.5,0-13.9-4.2-17.1-10.5l0,0c-1.3,1.5-2.3,3.2-3,5.1c4.4,6.4,11.8,10.6,20.1,10.6
				c4.1,0,8-1,11.4-2.8c2.6-1.8,4.3-4.8,4.3-8.3c0-0.5,0-1-0.1-1.5c-0.1-0.3-0.1-0.7-0.5-0.1C32.5,13.2,27,16.1,20.8,16.1z"/>
		</g>
		<g>
			<path class="st0" d="M17,0C9.9-0.4,3.6,3.8,1,9.9c0,0-0.2,0.5-0.3,0.8c1.2,1.8,2.6,3.4,4.3,4.8C5.4,9.7,10.5,4.9,16.6,5.2
				c6.1,0.3,10.6,5.7,10.5,11.8c-0.3,11.3-8.3,16.1-11,17.4c-1.4-0.7-4-2.2-6.4-4.9c-0.1-0.1,0-0.2,0-0.2c1-0.9,2.2-1.4,3.6-1.6
				c0.1,0,0.2,0,0.2-0.1c0,0,0-0.1-0.2-0.1c-2.5-0.6-4.9-1.6-7-2.9c-2.3-1.4-4.4-3.2-6.1-5.3c-0.1-0.1-0.2,0-0.2,0.1
				c1.4,12,10.3,18.5,15.2,20.3l0.9,0.3l0.9-0.3c5.1-1.9,14.5-8.8,15.3-21.7C32.7,8.9,26.1,0.6,17,0z"/>
		</g>
	</g>
	<path class="st0" d="M53.6,5.9c0-1.1,0.9-1.9,2.2-1.9S58,4.8,58,5.9s-0.9,2-2.2,2C54.5,7.8,53.6,6.9,53.6,5.9z M54,8.9h3.6v10.3H54
		V8.9z"/>
	<path class="st0" d="M59.1,18.3l1.1-2.5c0.9,0.6,2.3,0.9,3.6,0.9c1.2,0,1.6-0.3,1.6-0.7c0-1.4-6.1,0.2-6.1-3.9c0-1.9,1.8-3.4,5-3.4
		c1.4,0,3,0.3,4.1,0.9l-1.1,2.5c-1-0.6-2.1-0.8-3-0.8c-1.2,0-1.7,0.3-1.7,0.7c0,1.4,6.1-0.1,6.1,4c0,1.9-1.7,3.4-5.1,3.4
		C61.9,19.4,60.1,18.9,59.1,18.3z"/>
	<path class="st0" d="M81.3,13.3v5.9h-3.6v-5.3c0-1.5-0.6-2.1-1.7-2.1c-1.2,0-2.1,0.7-2.1,2.4v5h-3.6V5.1h2.5c0.6,0,1.1,0.5,1.1,1.1
		v3.6c0.8-0.7,1.9-1.1,3.1-1.1C79.5,8.7,81.3,10.1,81.3,13.3z"/>
	<path class="st0" d="M83.2,5.9c0-1.1,0.9-1.9,2.2-1.9c1.3,0,2.2,0.8,2.2,1.9s-0.9,2-2.2,2C84,7.8,83.2,6.9,83.2,5.9z M83.6,8.9h3.6
		v10.3h-3.6V8.9z"/>
	<path class="st0" d="M100.5,13.3v5.9h-3.6v-5.3c0-1.5-0.6-2.1-1.7-2.1c-1.2,0-2.1,0.7-2.1,2.4v5h-3.6V8.9h2.3
		c0.6,0,1.1,0.5,1.1,1.1l0,0c0.8-0.9,2-1.3,3.3-1.3C98.6,8.7,100.5,10.1,100.5,13.3z"/>
	<path class="st0" d="M112.8,8.9c0.6,0,1.1,0.5,1.1,1.1v7.3c0,3.9-2.2,5.7-6,5.7c-2,0-3.9-0.5-5.1-1.3l1.3-2.5
		c0.9,0.7,2.3,1.1,3.5,1.1c1.9,0,2.8-0.9,2.8-2.5v-0.3c-0.7,0.8-1.7,1.2-3.1,1.2c-2.7,0-5.1-1.9-5.1-5c0-3,2.3-5,5.1-5
		c1.4,0,2.5,0.5,3.2,1.4V8.9H112.8z M110.4,13.7c0-1.3-0.9-2.1-2.2-2.1c-1.3,0-2.3,0.8-2.3,2.1s1,2.1,2.3,2.1
		C109.4,15.8,110.4,15,110.4,13.7z"/>
	<path class="st0" d="M54.8,31.8c0,2.3-1.9,3.6-5.5,3.6h-7.2V22.2H49c3.5,0,5.2,1.4,5.2,3.5c0,1.3-0.6,2.3-1.8,2.9
		C53.9,29.1,54.8,30.2,54.8,31.8z M45.9,24.9v2.6h2.6c1.3,0,1.9-0.4,1.9-1.3c0-0.8-0.6-1.3-1.9-1.3C48.5,24.9,45.9,24.9,45.9,24.9z
		 M51,31.4c0-0.9-0.7-1.3-2-1.3h-3.2v2.7H49C50.3,32.8,51,32.3,51,31.4z"/>
	<path class="st0" d="M56,30.3c0-3.1,2.5-5.3,5.8-5.3c3.4,0,5.8,2.2,5.8,5.3s-2.4,5.3-5.8,5.3C58.4,35.7,56,33.4,56,30.3z
		 M63.9,30.3c0-1.6-0.9-2.4-2.2-2.4c-1.2,0-2.2,0.9-2.2,2.4c0,1.6,0.9,2.5,2.2,2.5S63.9,31.9,63.9,30.3z"/>
	<path class="st0" d="M68.6,30.3c0-3.1,2.5-5.3,5.8-5.3c3.4,0,5.8,2.2,5.8,5.3s-2.4,5.3-5.8,5.3C71.1,35.7,68.6,33.4,68.6,30.3z
		 M76.6,30.3c0-1.6-0.9-2.4-2.2-2.4c-1.2,0-2.2,0.9-2.2,2.4c0,1.6,0.9,2.5,2.2,2.5S76.6,31.9,76.6,30.3z"/>
	<path class="st0" d="M86.6,31.9L85.5,33v2.5h-3.6V21.4h2.5c0.6,0,1.1,0.5,1.1,1.1v6.3l3.7-3.6h4.3l-4.3,4.4l4.6,5.9h-4.4L86.6,31.9
		z"/>
	<path class="st0" d="M104.9,31.3h-7.5c0.3,1,1.2,1.7,2.5,1.7c1,0,1.7-0.3,2.4-0.9l1.9,2c-1,1.1-2.4,1.7-4.4,1.7c-3.7,0-6-2.3-6-5.3
		c0-3.1,2.4-5.3,5.7-5.3c3,0,5.5,1.9,5.5,5.3C105,30.6,105,31,104.9,31.3z M97.4,29.4h4.2c-0.2-1.1-1-1.8-2.1-1.8
		S97.6,28.3,97.4,29.4z"/>
	<path class="st0" d="M113.9,25v3.3c-0.7,0-0.9-0.1-1.2-0.1c-1.5,0-2.5,0.7-2.5,2.5v4.8h-3.6V25.2h2.3c0.6,0,1.1,0.5,1.1,1.1v0.1
		C110.9,25.5,112,25,113.9,25z"/>
	<path class="st0" d="M50.8,11.7h-4.9V8.8h4.9c0.5,0,1-0.3,1.1-0.8l0.6-2.1h-9.3c-0.6,0-1.1,0.5-1.1,1.1v12.2h3.8v-4.6H49
		c0.5,0,1-0.3,1.1-0.8L50.8,11.7z"/>
</g>
</svg>
